<?xml version="1.0" encoding="utf-8"?>
<!-- Generator: Adobe Illustrator 18.0.0, SVG Export Plug-In . SVG Version: 6.00 Build 0)  -->
<!DOCTYPE svg PUBLIC "-//W3C//DTD SVG 1.1//EN" "http://www.w3.org/Graphics/SVG/1.1/DTD/svg11.dtd">
<svg version="1.1" id="Layer_1" xmlns="http://www.w3.org/2000/svg" xmlns:xlink="http://www.w3.org/1999/xlink" x="0px" y="0px"
	 viewBox="0 0 900 500" enable-background="new 0 0 900 500" xml:space="preserve">
<rect fill="#555555" width="900" height="500"/>
<g>
	<g>
		<g>
			<path d="M430.4,151.9c-6.1-0.9-11.6,2.5-11.8,2.6l-0.8,0.5l0.6,0.7c0.2,0.2,4.4,5,10.5,5.9c6.1,0.9,11.6-2.5,11.8-2.6l0.8-0.5
				l-0.6-0.7C440.8,157.7,436.6,152.9,430.4,151.9 M425.5,159c-2.4-1.1-4.4-2.7-5.3-3.6c1.2-0.6,3.5-1.6,6.2-1.9
				c-0.7,0.7-1.3,1.6-1.5,2.7C424.9,157.2,425.1,158.1,425.5,159 M428,156.1c-0.7-0.1-1.1-0.7-1-1.4c0.1-0.7,0.7-1.1,1.4-1
				c0.7,0.1,1.1,0.7,1,1.4C429.3,155.7,428.7,156.2,428,156.1 M433.1,160.1c0.7-0.7,1.2-1.5,1.3-2.5c0.2-1.1-0.1-2.1-0.6-3
				c2.5,1.1,4.5,2.7,5.4,3.6C438,158.8,435.7,159.7,433.1,160.1"/>
			<path d="M470,151.9c-6.1,0.9-10.4,5.7-10.5,5.9l-0.6,0.7l0.8,0.5c0.2,0.1,5.7,3.5,11.8,2.6c6.1-0.9,10.4-5.7,10.5-5.9l0.6-0.7
				l-0.8-0.5C481.6,154.4,476.2,151,470,151.9 M474.9,159c0.4-0.8,0.7-1.8,0.5-2.8c-0.2-1.1-0.7-2-1.5-2.7c2.7,0.3,5.1,1.3,6.2,1.9
				C479.3,156.3,477.4,157.9,474.9,159 M472.4,156.1c-0.7,0.1-1.3-0.4-1.4-1c-0.1-0.7,0.4-1.3,1-1.4c0.7-0.1,1.3,0.4,1.4,1
				C473.6,155.3,473.1,156,472.4,156.1 M467.4,160.1c-2.7-0.4-4.9-1.3-6.1-1.9c0.9-0.9,2.9-2.5,5.4-3.6c-0.5,0.9-0.8,1.9-0.6,3
				C466.2,158.6,466.8,159.4,467.4,160.1"/>
			<polygon points="438.8,163.6 430.5,167.7 418,161.9 429.9,165 			"/>
			<polygon points="461.7,163.6 470.1,167.7 482.6,161.9 470.6,165 			"/>
			<polygon points="459.7,180 453.9,157.5 453.9,178.3 450.2,178.9 446.6,178.3 446.6,157.5 440.8,180 450.2,184.3 			"/>
			<polygon points="465.7,194 453.3,190.7 450.2,192.2 447.2,190.7 434.7,194 435.5,196.8 435.9,196.8 450.2,195.9 464.7,196.8 
				465,196.8 			"/>
			<path d="M456.4,200.1c0,1.3-2.7,2.3-6.1,2.3c-3.4,0-6.1-1.1-6.1-2.3"/>
			<path d="M491.6,180.7l-1.5-2l-21.7,16.7l-2.4,19.8l0.3,0l-6.1,4h-20.9l-6.1-4l0.4,0l-2.4-19.8l-18.5-14.2l-3.2-2.5l-1.5,2l2.5,2
				l8.8,26.6l19.2,13.1H461l19.2-13.1l8.6-26.3L491.6,180.7z M415.9,190.6l-1.7-5.2l14.8,11.3l0.5,4.2L415.9,190.6z M418.8,199.3
				l-1.7-5.2l12.7,9.7l0.5,4.4L418.8,199.3z M421.4,207.4l-1.5-4.6l10.7,8.3l0.3,2.6L421.4,207.4z M478,207.3l-9.4,6.2l0.4-2.9
				l10.6-8.1L478,207.3z M480.8,199.1l-11.4,8.7l0.5-4.3l12.6-9.8L480.8,199.1z M483.7,190.2l-13.4,10.4l0.5-3.9l14.5-11.1
				L483.7,190.2z"/>
			<path d="M417.1,146.5l0.3,2.4c0,0,11-2.8,28.5,3.5l-0.3-2.9C445.6,149.5,433.6,143.4,417.1,146.5z"/>
			<path d="M483.5,146.5l-0.3,2.4c0,0-11-2.8-28.5,3.5l0.3-2.9C455,149.5,467,143.4,483.5,146.5z"/>
			<path d="M502,113.6c-9.9-31.5-46.3-33.8-51.9-34v0c0,0-0.1,0-0.4,0c-0.2,0-0.4,0-0.4,0v0c-5.7,0.2-42,2.4-51.9,34
				c-8.1,25.8-5.7,57.7,15.2,75.4c0,0-12.4-43.2,0-48.1h4.8c3.1-26.6,18.9-37.6,18.9-37.6c-13.1,13.5-16.1,31.9-16.8,37.6h12.4
				c0.5-16.5,10.7-31.1,10.7-31.1c-7.2,12.7-8.4,26.3-8.6,31.1h14.4l1.3-26.6l1,26.6h14.5c-0.2-4.8-1.4-18.5-8.6-31.1
				c0,0,10.2,14.6,10.7,31.1h12.4c-0.7-5.7-3.7-24.1-16.8-37.6c0,0,15.7,11,18.9,37.6h5c10,4.2,0,48.1,0,48.1
				C507.7,171.3,510.2,139.5,502,113.6z"/>
		</g>
		<g>
			<path d="M352.1,334.7h-0.9v-12.4h6.8v0.8h-5.9v5.2h5.6v0.8h-5.6V334.7z"/>
			<path d="M375.2,329.4v5.4h-0.9v-12.4h2.9c1.5,0,2.7,0.3,3.4,0.8c0.7,0.6,1.1,1.4,1.1,2.6c0,0.8-0.2,1.5-0.7,2.1
				c-0.4,0.6-1.1,1-2,1.2l3.4,5.6h-1l-3.2-5.4H375.2z M375.2,328.6h2.4c1,0,1.9-0.2,2.4-0.7c0.6-0.5,0.9-1.2,0.9-2.1
				c0-0.9-0.3-1.6-0.8-2.1c-0.6-0.4-1.5-0.6-2.8-0.6h-2V328.6z"/>
			<path d="M404.6,330.4h-5l-1.7,4.4h-1l5-12.4h0.5l4.9,12.4h-1L404.6,330.4z M399.9,329.6h4.4l-1.7-4.5c-0.1-0.3-0.3-0.8-0.5-1.5
				c-0.2,0.5-0.3,1-0.5,1.5L399.9,329.6z"/>
			<path d="M425.6,334.7l-4.6-11.4h-0.1c0,0.7,0.1,1.4,0.1,2.1v9.3h-0.8v-12.4h1.3l4.4,10.9h0.1l4.4-10.9h1.3v12.4h-0.9v-9.4
				c0-0.7,0-1.3,0.1-2h-0.1l-4.6,11.4H425.6z"/>
			<path d="M453,334.7h-6.8v-12.4h6.8v0.8h-5.9v4.7h5.6v0.8h-5.6v5.3h5.9V334.7z"/>
			<path d="M477.2,334.7h-0.7l-2.7-9.5c-0.2-0.8-0.4-1.4-0.5-1.9c-0.1,0.5-0.2,1.1-0.4,1.7c-0.2,0.6-1.1,3.9-2.7,9.8h-0.7l-3.4-12.4
				h0.9l2.2,8c0.1,0.3,0.2,0.6,0.2,0.9c0.1,0.3,0.1,0.5,0.2,0.8c0.1,0.2,0.1,0.5,0.2,0.7c0,0.2,0.1,0.4,0.1,0.7
				c0.1-0.8,0.4-1.9,0.9-3.5l2.1-7.5h1l2.5,8.6c0.3,1,0.5,1.8,0.6,2.4c0.1-0.4,0.2-0.8,0.3-1.3c0.1-0.5,1-3.7,2.6-9.7h0.9
				L477.2,334.7z"/>
			<path d="M502.6,328.5c0,2-0.5,3.5-1.5,4.7s-2.3,1.7-4.1,1.7c-1.7,0-3.1-0.6-4-1.7c-1-1.1-1.5-2.7-1.5-4.7c0-2,0.5-3.5,1.5-4.6
				s2.3-1.7,4.1-1.7c1.7,0,3.1,0.6,4,1.7S502.6,326.6,502.6,328.5z M492.5,328.5c0,1.8,0.4,3.1,1.2,4.1c0.8,1,1.9,1.4,3.4,1.4
				c1.5,0,2.6-0.5,3.4-1.4c0.8-1,1.2-2.3,1.2-4.1c0-1.8-0.4-3.1-1.2-4.1c-0.8-0.9-1.9-1.4-3.4-1.4c-1.5,0-2.6,0.5-3.4,1.4
				C492.9,325.4,492.5,326.8,492.5,328.5z"/>
			<path d="M517.6,329.4v5.4h-0.9v-12.4h2.9c1.5,0,2.7,0.3,3.4,0.8c0.7,0.6,1.1,1.4,1.1,2.6c0,0.8-0.2,1.5-0.7,2.1
				c-0.4,0.6-1.1,1-2,1.2l3.4,5.6h-1l-3.2-5.4H517.6z M517.6,328.6h2.4c1,0,1.9-0.2,2.4-0.7c0.6-0.5,0.9-1.2,0.9-2.1
				c0-0.9-0.3-1.6-0.8-2.1c-0.6-0.4-1.5-0.6-2.8-0.6h-2V328.6z"/>
			<path d="M548.7,334.7h-1.1l-4.7-6.5l-1.6,1.5v5.1h-0.9v-12.4h0.9v6.4l1.4-1.4l4.8-5.1h1.1l-5.1,5.2L548.7,334.7z"/>
		</g>
		<g>
			<rect x="537.7" y="239.6" width="11" height="71.3"/>
			<polygon points="442.4,239.6 442.4,299.2 424.1,299.2 424.1,239.6 413.1,239.6 413.1,311 413.6,311 453.4,311 453.4,239.6 			"/>
			<polygon points="351.3,239.6 351.3,251.4 365.6,251.4 365.6,311 376.6,311 376.6,251.4 391.1,251.4 391.1,239.6 			"/>
			<path d="M475.3,239.6V311h11v-29.6h29.3v-41.7l0,0H475.3z M504.5,269.6h-18.2v-18.2h18.2V269.6z"/>
		</g>
		<rect x="351.3" y="261.3" width="7.2" height="9.9"/>
		<rect x="351.3" y="281.2" width="7.2" height="9.9"/>
		<rect x="351.3" y="301" width="7.2" height="9.9"/>
		<rect x="493" y="301" width="7.2" height="9.9"/>
	</g>
</g>
</svg>
