<svg xmlns="http://www.w3.org/2000/svg" viewBox="0 0 900 500"><path fill="#555" d="M0 0h900v500H0z"/><path d="M430.4 151.9c-6.1-.9-11.6 2.5-11.8 2.6l-.8.5.6.7c.2.2 4.4 5 10.5 5.9 6.1.9 11.6-2.5 11.8-2.6l.8-.5-.6-.7c-.1-.1-4.3-4.9-10.5-5.9m-4.9 7.1c-2.4-1.1-4.4-2.7-5.3-3.6 1.2-.6 3.5-1.6 6.2-1.9-.7.7-1.3 1.6-1.5 2.7 0 1 .2 1.9.6 2.8m2.5-2.9c-.7-.1-1.1-.7-1-1.4.1-.7.7-1.1 1.4-1 .7.1 1.1.7 1 1.4-.1.6-.7 1.1-1.4 1m5.1 4c.7-.7 1.2-1.5 1.3-2.5.2-1.1-.1-2.1-.6-3 2.5 1.1 4.5 2.7 5.4 3.6-1.2.6-3.5 1.5-6.1 1.9M470 151.9c-6.1.9-10.4 5.7-10.5 5.9l-.6.7.8.5c.2.1 5.7 3.5 11.8 2.6 6.1-.9 10.4-5.7 10.5-5.9l.6-.7-.8-.5c-.2-.1-5.6-3.5-11.8-2.6m4.9 7.1c.4-.8.7-1.8.5-2.8-.2-1.1-.7-2-1.5-2.7 2.7.3 5.1 1.3 6.2 1.9-.8.9-2.7 2.5-5.2 3.6m-2.5-2.9c-.7.1-1.3-.4-1.4-1-.1-.7.4-1.3 1-1.4.7-.1 1.3.4 1.4 1 .2.6-.3 1.3-1 1.4m-5 4c-2.7-.4-4.9-1.3-6.1-1.9.9-.9 2.9-2.5 5.4-3.6-.5.9-.8 1.9-.6 3 .1 1 .7 1.8 1.3 2.5M438.8 163.6l-8.3 4.1-12.5-5.8 11.9 3.1M461.7 163.6l8.4 4.1 12.5-5.8-12 3.1M459.7 180l-5.8-22.5v20.8l-3.7.6-3.6-.6v-20.8l-5.8 22.5 9.4 4.3M465.7 194l-12.4-3.3-3.1 1.5-3-1.5-12.5 3.3.8 2.8h.4l14.3-.9 14.5.9h.3M456.4 200.1c0 1.3-2.7 2.3-6.1 2.3-3.4 0-6.1-1.1-6.1-2.3"/><path d="M491.6 180.7l-1.5-2-21.7 16.7-2.4 19.8h.3l-6.1 4h-20.9l-6.1-4h.4l-2.4-19.8-18.5-14.2-3.2-2.5-1.5 2 2.5 2 8.8 26.6 19.2 13.1H461l19.2-13.1 8.6-26.3 2.8-2.3zm-75.7 9.9l-1.7-5.2 14.8 11.3.5 4.2-13.6-10.3zm2.9 8.7l-1.7-5.2 12.7 9.7.5 4.4-11.5-8.9zm2.6 8.1l-1.5-4.6 10.7 8.3.3 2.6-9.5-6.3zm56.6-.1l-9.4 6.2.4-2.9 10.6-8.1-1.6 4.8zm2.8-8.2l-11.4 8.7.5-4.3 12.6-9.8-1.7 5.4zm2.9-8.9l-13.4 10.4.5-3.9 14.5-11.1-1.6 4.6zM417.1 146.5l.3 2.4s11-2.8 28.5 3.5l-.3-2.9s-12-6.1-28.5-3zM483.5 146.5l-.3 2.4s-11-2.8-28.5 3.5l.3-2.9s12-6.1 28.5-3z"/><path d="M502 113.6c-9.9-31.5-46.3-33.8-51.9-34h-.8c-5.7.2-42 2.4-51.9 34-8.1 25.8-5.7 57.7 15.2 75.4 0 0-12.4-43.2 0-48.1h4.8c3.1-26.6 18.9-37.6 18.9-37.6-13.1 13.5-16.1 31.9-16.8 37.6h12.4c.5-16.5 10.7-31.1 10.7-31.1-7.2 12.7-8.4 26.3-8.6 31.1h14.4l1.3-26.6 1 26.6h14.5c-.2-4.8-1.4-18.5-8.6-31.1 0 0 10.2 14.6 10.7 31.1h12.4c-.7-5.7-3.7-24.1-16.8-37.6 0 0 15.7 11 18.9 37.6h5c10 4.2 0 48.1 0 48.1 20.9-17.7 23.4-49.5 15.2-75.4z"/><g><path d="M352.1 334.7h-.9v-12.4h6.8v.8h-5.9v5.2h5.6v.8h-5.6v5.6zM375.2 329.4v5.4h-.9v-12.4h2.9c1.5 0 2.7.3 3.4.8.7.6 1.1 1.4 1.1 2.6 0 .8-.2 1.5-.7 2.1-.4.6-1.1 1-2 1.2l3.4 5.6h-1l-3.2-5.4h-3zm0-.8h2.4c1 0 1.9-.2 2.4-.7.6-.5.9-1.2.9-2.1 0-.9-.3-1.6-.8-2.1-.6-.4-1.5-.6-2.8-.6h-2v5.5zM404.6 330.4h-5l-1.7 4.4h-1l5-12.4h.5l4.9 12.4h-1l-1.7-4.4zm-4.7-.8h4.4l-1.7-4.5c-.1-.3-.3-.8-.5-1.5-.2.5-.3 1-.5 1.5l-1.7 4.5zM425.6 334.7l-4.6-11.4h-.1c0 .7.1 1.4.1 2.1v9.3h-.8v-12.4h1.3l4.4 10.9h.1l4.4-10.9h1.3v12.4h-.9v-9.4c0-.7 0-1.3.1-2h-.1l-4.6 11.4h-.6zM453 334.7h-6.8v-12.4h6.8v.8h-5.9v4.7h5.6v.8h-5.6v5.3h5.9v.8zM477.2 334.7h-.7l-2.7-9.5c-.2-.8-.4-1.4-.5-1.9-.1.5-.2 1.1-.4 1.7-.2.6-1.1 3.9-2.7 9.8h-.7l-3.4-12.4h.9l2.2 8c.1.3.2.6.2.9.1.3.1.5.2.8.1.2.1.5.2.7 0 .2.1.4.1.7.1-.8.4-1.9.9-3.5l2.1-7.5h1l2.5 8.6c.3 1 .5 1.8.6 2.4.1-.4.2-.8.3-1.3.1-.5 1-3.7 2.6-9.7h.9l-3.6 12.2zM502.6 328.5c0 2-.5 3.5-1.5 4.7s-2.3 1.7-4.1 1.7c-1.7 0-3.1-.6-4-1.7-1-1.1-1.5-2.7-1.5-4.7s.5-3.5 1.5-4.6 2.3-1.7 4.1-1.7c1.7 0 3.1.6 4 1.7s1.5 2.7 1.5 4.6zm-10.1 0c0 1.8.4 3.1 1.2 4.1.8 1 1.9 1.4 3.4 1.4s2.6-.5 3.4-1.4c.8-1 1.2-2.3 1.2-4.1 0-1.8-.4-3.1-1.2-4.1-.8-.9-1.9-1.4-3.4-1.4s-2.6.5-3.4 1.4c-.8 1-1.2 2.4-1.2 4.1zM517.6 329.4v5.4h-.9v-12.4h2.9c1.5 0 2.7.3 3.4.8.7.6 1.1 1.4 1.1 2.6 0 .8-.2 1.5-.7 2.1-.4.6-1.1 1-2 1.2l3.4 5.6h-1l-3.2-5.4h-3zm0-.8h2.4c1 0 1.9-.2 2.4-.7.6-.5.9-1.2.9-2.1 0-.9-.3-1.6-.8-2.1-.6-.4-1.5-.6-2.8-.6h-2v5.5zM548.7 334.7h-1.1l-4.7-6.5-1.6 1.5v5.1h-.9v-12.4h.9v6.4l1.4-1.4 4.8-5.1h1.1l-5.1 5.2 5.2 7.2z"/></g><g><path d="M537.7 239.6h11v71.3h-11zM442.4 239.6v59.6h-18.3v-59.6h-11V311h40.3v-71.4M351.3 239.6v11.8h14.3V311h11v-59.6h14.5v-11.8M475.3 239.6V311h11v-29.6h29.3v-41.7h-40.3zm29.2 30h-18.2v-18.2h18.2v18.2z"/></g><path d="M351.3 261.3h7.2v9.9h-7.2zM351.3 281.2h7.2v9.9h-7.2zM351.3 301h7.2v9.9h-7.2zM493 301h7.2v9.9H493z"/></svg>